<svg width="46" height="96" viewBox="0 0 46 96" fill="none" xmlns="http://www.w3.org/2000/svg">
<path d="M42.6933 37.4888C46.5752 43.9586 46.5752 52.0414 42.6933 58.5112C41.5087 60.4855 39.5462 61.8685 37.2885 62.3201L27.9145 64.1949C27.5717 64.2634 27.4004 64.2977 27.2531 64.3853C27.1059 64.4729 26.994 64.6072 26.7703 64.8757L2.82917 93.605C1.64661 95.0241 1.05533 95.7336 0.527669 95.5426C1.2635e-05 95.3515 1.25139e-05 94.4279 1.22716e-05 92.5807L5.79519e-07 3.41929C3.37286e-07 1.57208 2.1617e-07 0.648468 0.527657 0.457429C1.05532 0.26639 1.6466 0.975924 2.82915 2.39499L26.7703 31.1243C26.994 31.3928 27.1059 31.5271 27.2531 31.6147C27.4004 31.7023 27.5717 31.7366 27.9145 31.8051L37.2885 33.6799C39.5462 34.1315 41.5087 35.5145 42.6933 37.4888Z" fill="white"/>
</svg>
