<svg width="46" height="96" viewBox="0 0 46 96" fill="none" xmlns="http://www.w3.org/2000/svg">
<path d="M3.30673 58.5112C-0.575189 52.0414 -0.575191 43.9586 3.30673 37.4888C4.49132 35.5145 6.45381 34.1315 8.71153 33.6799L18.0855 31.8051C18.4283 31.7366 18.5996 31.7023 18.7469 31.6147C18.8941 31.5271 19.006 31.3928 19.2297 31.1243L43.1708 2.39498C44.3534 0.975912 44.9447 0.266378 45.4723 0.457418C46 0.648458 46 1.57207 46 3.41927L46 92.5807C46 94.4279 46 95.3515 45.4723 95.5426C44.9447 95.7336 44.3534 95.0241 43.1708 93.605L19.2297 64.8757C19.006 64.6072 18.8941 64.4729 18.7469 64.3853C18.5996 64.2977 18.4283 64.2634 18.0855 64.1949L8.71153 62.3201C6.45381 61.8685 4.49132 60.4855 3.30673 58.5112Z" fill="white"/>
</svg>
