<svg width="90" height="90" viewBox="0 0 90 90" fill="none" xmlns="http://www.w3.org/2000/svg">
<path fill-rule="evenodd" clip-rule="evenodd" d="M45 3.93402e-06C20.1472 6.10673e-06 -6.10673e-06 20.1472 -3.93403e-06 45C-1.76132e-06 69.8528 20.1472 90 45 90C69.8528 90 90 69.8528 90 45C90 20.1472 69.8528 1.76132e-06 45 3.93402e-06ZM58.2172 69.0096L16.5735 45.8742C15.8877 45.4932 15.8877 44.5069 16.5735 44.1258L58.2172 20.9904C59.0171 20.5461 60 21.1244 60 22.0394L60 67.9606C60 68.8756 59.0171 69.4539 58.2172 69.0096Z" fill="#FFFBFB"/>
</svg>
