<svg width="59" height="72" viewBox="0 0 59 72" fill="none" xmlns="http://www.w3.org/2000/svg">
<g filter="url(#filter0_d_1_26)">
<path fill-rule="evenodd" clip-rule="evenodd" d="M54.4 3.37007C54.4 1.63081 53.14 0.219238 51.5888 0.219238H47.3749C45.0481 0.219238 43.1609 2.3366 43.1609 4.94549V6.70995L7.95388 9.57091C5.4983 9.74421 3.6979 12.2271 4.0423 14.9588L6.46709 33.971C6.61248 35.0984 7.11393 36.1291 7.8796 36.8744C8.64526 37.6197 9.6239 38.0297 10.6363 38.0292H43.1609V44.3309H15.0406C13.9355 44.3284 12.8407 44.571 11.8188 45.0447C10.797 45.5184 9.86807 46.214 9.08517 47.0918C8.30226 47.9696 7.6807 49.0124 7.25599 50.1605C6.83127 51.3087 6.61172 52.5397 6.60989 53.7834C6.60989 59.0043 10.3843 63.2359 15.0378 63.2359C16.3833 63.2382 17.7096 62.8773 18.9056 62.1836C20.1015 61.4899 21.1322 60.4836 21.9111 59.249C22.69 58.0145 23.1945 56.5878 23.3822 55.0885C23.5699 53.5893 23.4353 52.0612 22.9898 50.6326H38.0201C37.5746 52.0612 37.4401 53.5893 37.6278 55.0885C37.8155 56.5878 38.3199 58.0145 39.0988 59.249C39.8778 60.4836 40.9084 61.4899 42.1043 62.1836C43.3003 62.8773 44.6266 63.2382 45.9721 63.2359C47.077 63.238 48.1715 62.9951 49.193 62.5212C50.2146 62.0473 51.1431 61.3516 51.9257 60.4738C52.7083 59.5961 53.3297 58.5535 53.7542 57.4055C54.1787 56.2576 54.3982 55.0268 54.4 53.7834C54.4 49.6684 52.0536 46.1647 48.7805 44.8665V9.70324V6.5209H51.5888C51.9573 6.52173 52.3222 6.44089 52.6629 6.28299C53.0036 6.1251 53.3133 5.89324 53.5743 5.60066C53.8354 5.30808 54.0426 4.9605 54.1843 4.57778C54.326 4.19505 54.3993 3.78467 54.4 3.37007ZM17.849 53.7834C17.849 52.0441 16.5918 50.6326 15.0406 50.6326C13.4895 50.6326 12.2295 52.0441 12.2295 53.7834C12.2295 55.5227 13.4895 56.9342 15.0406 56.9342C15.7842 56.9351 16.4977 56.6037 17.0243 56.0129C17.5509 55.4221 17.8475 54.6202 17.849 53.7834ZM48.7805 53.7834C48.7805 52.0441 47.5205 50.6326 45.9693 50.6326C44.4181 50.6326 43.1609 52.0441 43.1609 53.7834C43.1609 55.5227 44.4181 56.9342 45.9693 56.9342C46.3377 56.9351 46.7027 56.8542 47.0433 56.6963C47.384 56.5384 47.6937 56.3066 47.9548 56.014C48.2158 55.7214 48.4231 55.3738 48.5648 54.9911C48.7064 54.6084 48.7797 54.198 48.7805 53.7834Z" fill="#1E4307"/>
<path d="M15.0406 44.3309H42.6609H43.1609H15.0406ZM15.0406 44.3309C13.9355 44.3284 12.8407 44.571 11.8188 45.0447C10.797 45.5184 9.86807 46.214 9.08517 47.0918C8.30226 47.9696 7.6807 49.0124 7.25599 50.1605C6.83127 51.3087 6.61172 52.5397 6.60989 53.7834L15.0406 44.3309ZM43.6609 7.17097V6.70995V4.94549C43.6609 2.55721 45.3767 0.719238 47.3749 0.719238H51.5888C52.8117 0.719238 53.8998 1.85165 53.9 3.36962C53.8993 3.72608 53.8362 4.07778 53.7154 4.4042L54.1843 4.57778L53.7154 4.4042C53.5945 4.73073 53.419 5.02374 53.2012 5.26779C52.9836 5.51172 52.7286 5.70144 52.4527 5.82935C52.1769 5.95716 51.884 6.02157 51.59 6.02091L51.5888 6.0209L48.7805 6.0209H48.2805V6.5209V9.70324V44.8665V45.2061L48.5961 45.3313C51.6593 46.5462 53.8999 49.8515 53.9 53.783C53.8982 54.9683 53.689 56.1404 53.2852 57.2321C52.8815 58.3239 52.2919 59.3119 51.5525 60.1411C50.8133 60.9702 49.9395 61.6237 48.9826 62.0676C48.026 62.5114 47.0035 62.7378 45.973 62.7359L45.9712 62.7359C44.7167 62.738 43.4769 62.4017 42.3552 61.7511C41.2331 61.1002 40.26 60.1524 39.5217 58.9822C38.7833 57.8119 38.3028 56.4555 38.1239 55.0264C37.945 53.5973 38.0734 52.1412 38.4974 50.7814L38.6998 50.1326H38.0201H22.9898H22.3101L22.5125 50.7814C22.9365 52.1412 23.0649 53.5973 22.886 55.0264C22.7071 56.4555 22.2266 57.8119 21.4882 58.9822C20.7499 60.1524 19.7768 61.1002 18.6547 61.7511C17.533 62.4017 16.2932 62.738 15.0387 62.7359H15.0378C10.713 62.7359 7.11024 58.784 7.10989 53.7841C7.11164 52.5985 7.321 51.426 7.72493 50.334C8.12886 49.242 8.71871 48.2539 9.45831 47.4246C10.1978 46.5955 11.072 45.942 12.0291 45.4983C12.9861 45.0547 14.0088 44.8286 15.0395 44.8309H15.0406H43.1609H43.6609V44.3309V38.0292V37.5292H43.1609H10.6363H10.636C9.76181 37.5296 8.90635 37.1761 8.22835 36.5161C7.54906 35.8549 7.09514 34.9306 6.96307 33.9077L43.6609 7.17097ZM43.6609 7.17097L43.2014 7.20831L7.99438 10.0693L7.99438 10.0693L7.98908 10.0697C5.8758 10.2188 4.22243 12.3902 4.53838 14.8963L6.96298 33.907L43.6609 7.17097ZM49.2805 53.7843L49.2805 53.7834C49.2805 51.8231 47.8486 50.1326 45.9693 50.1326C44.0893 50.1326 42.6609 51.8237 42.6609 53.7834C42.6609 55.7426 44.0887 57.4336 45.9681 57.4342L49.2805 53.7843ZM49.2805 53.7843C49.2796 54.2569 49.1961 54.7258 49.0337 55.1647C48.8712 55.6036 48.6322 56.0057 48.3279 56.3469L47.9548 56.014M49.2805 53.7843L47.9548 56.014M47.9548 56.014L48.3278 56.3469C48.0234 56.6881 47.659 56.9621 47.2536 57.15C46.8484 57.3378 46.4117 57.4351 45.9693 57.4342L47.9548 56.014ZM18.349 53.7834V53.7843L15.0406 56.9342V57.4342C15.0405 57.4342 15.0403 57.4342 15.0401 57.4342C13.161 57.4339 11.7295 55.7435 11.7295 53.7834C11.7295 51.8231 13.1613 50.1326 15.0406 50.1326C16.9206 50.1326 18.349 51.8237 18.349 53.7834Z" stroke="black"/>
</g>
<defs>
<filter id="filter0_d_1_26" x="3.05176e-05" y="0.219238" width="58.4" height="71.0166" filterUnits="userSpaceOnUse" color-interpolation-filters="sRGB">
<feFlood flood-opacity="0" result="BackgroundImageFix"/>
<feColorMatrix in="SourceAlpha" type="matrix" values="0 0 0 0 0 0 0 0 0 0 0 0 0 0 0 0 0 0 127 0" result="hardAlpha"/>
<feOffset dy="4"/>
<feGaussianBlur stdDeviation="2"/>
<feComposite in2="hardAlpha" operator="out"/>
<feColorMatrix type="matrix" values="0 0 0 0 0 0 0 0 0 0 0 0 0 0 0 0 0 0 0.25 0"/>
<feBlend mode="normal" in2="BackgroundImageFix" result="effect1_dropShadow_1_26"/>
<feBlend mode="normal" in="SourceGraphic" in2="effect1_dropShadow_1_26" result="shape"/>
</filter>
</defs>
</svg>
