<svg width="64" height="64" viewBox="0 0 64 64" fill="none" xmlns="http://www.w3.org/2000/svg">
<path d="M2.67962 13.4256L15.3982 0.707107C15.7887 0.316582 16.4218 0.316582 16.8124 0.707106L29.0824 12.9771C29.4729 13.3676 29.4729 14.0008 29.0824 14.3913L20.5456 22.9281C19.9369 23.5368 19.786 24.4667 20.171 25.2367L22.9398 30.7743C25.1653 35.2254 28.7746 38.8347 33.2257 41.0602L38.7633 43.829C39.5333 44.214 40.4632 44.0631 41.0719 43.4544L49.6087 34.9176C49.9992 34.5271 50.6324 34.5271 51.0229 34.9176L63.2929 47.1876C63.6834 47.5782 63.6834 48.2113 63.2929 48.6018L50.5744 61.3204C48.463 63.4317 45.1204 63.6693 42.7317 61.8777L22.1549 46.4451C20.4114 45.1375 18.8625 43.5886 17.5549 41.8451L2.12226 21.2683C0.330722 18.8796 0.568272 15.537 2.67962 13.4256Z" fill="#222222"/>
</svg>
