<svg width="53" height="53" viewBox="0 0 53 53" fill="none" xmlns="http://www.w3.org/2000/svg">
<path d="M42.713 26.2849C42.713 27.1563 42.3668 27.992 41.7506 28.6082C41.1345 29.2244 40.2988 29.5705 39.4274 29.5705H29.5705V39.4274C29.5705 40.2988 29.2244 41.1345 28.6082 41.7506C27.992 42.3668 27.1563 42.713 26.2849 42.713C25.4135 42.713 24.5778 42.3668 23.9616 41.7506C23.3455 41.1345 22.9993 40.2988 22.9993 39.4274V29.5705H13.1425C12.2711 29.5705 11.4353 29.2244 10.8192 28.6082C10.203 27.992 9.85684 27.1563 9.85684 26.2849C9.85684 25.4135 10.203 24.5778 10.8192 23.9616C11.4353 23.3455 12.2711 22.9993 13.1425 22.9993H22.9993V13.1425C22.9993 12.2711 23.3455 11.4353 23.9616 10.8192C24.5778 10.203 25.4135 9.85684 26.2849 9.85684C27.1563 9.85684 27.992 10.203 28.6082 10.8192C29.2244 11.4353 29.5705 12.2711 29.5705 13.1425V22.9993H39.4274C40.2988 22.9993 41.1345 23.3455 41.7506 23.9616C42.3668 24.5778 42.713 25.4135 42.713 26.2849ZM26.2849 0C19.3137 0 12.628 2.7693 7.69867 7.69867C2.7693 12.628 0 19.3137 0 26.2849C0 33.2561 2.7693 39.9418 7.69867 44.8712C12.628 49.8005 19.3137 52.5698 26.2849 52.5698C33.2561 52.5698 39.9418 49.8005 44.8712 44.8712C49.8005 39.9418 52.5698 33.2561 52.5698 26.2849C52.5698 19.3137 49.8005 12.628 44.8712 7.69867C39.9418 2.7693 33.2561 0 26.2849 0Z" fill="#FDFEFF"/>
</svg>
