<svg width="24" height="31" viewBox="0 0 24 31" fill="none" xmlns="http://www.w3.org/2000/svg">
<path d="M10.4945 1.55006L10.4945 25.3264L2.62467 16.0307C2.3622 15.7236 1.99275 15.5363 1.59706 15.5099C1.20136 15.4834 0.811629 15.6199 0.513046 15.8895C0.214464 16.1591 0.0313222 16.5398 0.0036579 16.9485C-0.0240064 17.3572 0.106056 17.7606 0.365414 18.0706L10.8666 30.471C10.8771 30.4834 10.8936 30.488 10.9041 30.5004C11.0098 30.6104 11.1312 30.703 11.2641 30.7748C11.3091 30.8027 11.3451 30.8446 11.3946 30.8663C11.5837 30.9544 11.7888 31 11.9962 31C12.2036 31 12.4087 30.9544 12.5978 30.8663C12.6473 30.8446 12.6833 30.8027 12.7298 30.7748C12.8603 30.6973 12.9848 30.6136 13.0883 30.5004C13.0988 30.488 13.1153 30.4834 13.1258 30.471L23.627 18.0705C23.7574 17.9176 23.8572 17.7396 23.9206 17.5466C23.984 17.3537 24.0099 17.1496 23.9966 16.9463C23.9834 16.743 23.9313 16.5444 23.8434 16.362C23.7555 16.1795 23.6335 16.0169 23.4845 15.8834C23.1849 15.6129 22.7936 15.4765 22.3966 15.5041C21.9996 15.5317 21.6296 15.7211 21.3678 16.0307L13.4949 25.3264L13.4949 1.55006C13.4949 1.13896 13.3368 0.744693 13.0555 0.454002C12.7742 0.16331 12.3926 1.36565e-06 11.9947 1.38304e-06C11.5968 1.40043e-06 11.2153 0.163311 10.9339 0.454002C10.6526 0.744693 10.4945 1.13896 10.4945 1.55006Z" fill="#1E4307"/>
</svg>
